<?xml version="1.0" standalone="no"?>
<!DOCTYPE svg PUBLIC "-//W3C//DTD SVG 20010904//EN"
 "http://www.w3.org/TR/2001/REC-SVG-20010904/DTD/svg10.dtd">
<svg version="1.0" xmlns="http://www.w3.org/2000/svg"
 width="600.000000pt" height="600.000000pt" viewBox="0 0 600.000000 600.000000"
 preserveAspectRatio="xMidYMid meet">
<metadata>
Created by potrace 1.16, written by Peter Selinger 2001-2019
</metadata>
<g transform="translate(0.000000,600.000000) scale(0.100000,-0.100000)"
fill="#ffffff" stroke="none">
<path d="M1655 5154 c-347 -51 -606 -174 -811 -386 -107 -111 -180 -215 -244
-352 -60 -126 -83 -195 -111 -327 -29 -134 -31 -356 -5 -468 60 -265 186 -501
396 -745 l101 -117 -16 -72 c-23 -97 -31 -294 -16 -397 56 -379 292 -700 634
-860 245 -115 507 -137 776 -65 l95 26 21 -23 c65 -69 254 -278 338 -375 100
-114 147 -153 187 -153 42 0 89 40 214 183 68 78 155 174 193 214 l68 72 105
-40 c229 -86 439 -124 640 -117 137 6 211 26 284 79 51 37 49 35 161 244 26
50 65 122 86 160 20 39 40 90 44 115 18 127 -72 329 -229 513 -28 34 -45 62
-39 65 23 16 118 95 248 208 431 375 654 701 741 1085 26 111 24 334 -4 466
-102 477 -408 838 -842 991 -168 59 -275 76 -475 76 -161 -1 -190 -3 -277 -27
-367 -98 -672 -368 -866 -769 -26 -54 -49 -98 -52 -98 -3 0 -26 44 -52 98
-194 400 -504 675 -866 768 -78 21 -127 26 -247 29 -82 2 -163 1 -180 -1z
m714 -705 c157 -40 299 -128 433 -267 70 -73 169 -204 192 -254 5 -11 7 -11
12 0 22 48 120 179 184 246 222 232 465 328 756 296 529 -57 895 -434 895
-925 1 -230 -61 -407 -220 -635 -73 -105 -311 -370 -331 -370 -5 0 -49 28 -97
63 -251 181 -541 314 -823 377 -55 13 -149 24 -222 27 l-128 6 -31 48 c-17 27
-37 49 -43 49 -7 0 -39 -11 -72 -24 -32 -13 -92 -36 -132 -51 l-74 -27 38 -39
37 -38 -34 -38 c-48 -53 -180 -272 -225 -373 -36 -79 -38 -92 -38 -175 1 -73
6 -103 28 -160 33 -86 89 -180 157 -264 l51 -64 -23 -19 c-40 -32 -107 -78
-113 -78 -3 0 -95 89 -203 198 -109 109 -277 266 -373 348 -222 190 -468 433
-553 548 -77 105 -78 97 28 202 87 87 180 143 301 183 141 47 330 58 456 26
26 -7 28 -6 23 21 -3 16 -16 83 -28 149 l-22 120 -95 3 c-287 9 -574 -100
-786 -301 l-72 -68 -20 63 c-34 103 -45 177 -44 293 3 426 274 767 707 890
171 48 350 53 504 14z m1026 -1606 c170 -32 396 -122 560 -223 99 -60 235
-163 232 -174 -2 -5 -35 -36 -74 -68 l-70 -59 -96 65 c-229 152 -510 263 -726
285 l-65 6 -28 90 c-15 50 -28 91 -28 92 -1 16 181 8 295 -14z m-106 -238
c169 -32 397 -126 573 -237 149 -93 148 -78 16 -196 -62 -55 -167 -155 -233
-222 l-120 -122 -53 27 c-68 36 -210 131 -286 190 -65 53 -63 38 -30 185 17
78 24 311 11 363 -7 24 -5 27 17 27 13 0 60 -7 105 -15z m-2128 -145 c43 -349
230 -629 516 -774 310 -156 662 -132 1003 70 l45 26 -35 -31 c-61 -55 -180
-132 -264 -172 -247 -116 -522 -131 -746 -42 -359 144 -578 513 -556 941 5
113 19 169 24 102 1 -19 7 -73 13 -120z m1472 112 c24 -33 26 -44 20 -92 -8
-71 -35 -126 -73 -145 -29 -15 -29 -15 -55 22 -55 82 -9 247 71 252 6 1 23
-16 37 -37z m272 11 c4 -10 9 -70 12 -133 5 -108 4 -114 -11 -93 -26 35 -74
144 -81 184 -6 34 -4 38 22 47 41 15 50 14 58 -5z m-1544 -163 c64 -52 161
-132 215 -176 155 -128 624 -568 624 -586 0 -13 -149 -8 -230 6 -380 69 -679
367 -739 737 -15 89 -14 132 2 123 6 -5 64 -51 128 -104z m1453 -187 c26 -30
29 -42 27 -90 -3 -77 -33 -128 -89 -149 -23 -9 -44 -15 -45 -13 -2 2 -17 20
-34 40 -27 33 -30 42 -26 90 6 66 41 125 86 144 44 19 48 18 81 -22z m1647
-74 c109 -161 138 -322 69 -391 -31 -31 -50 -36 -50 -13 0 54 -97 227 -176
314 -20 23 -35 43 -33 45 81 72 134 114 141 110 4 -3 26 -32 49 -65z m-145
-196 c57 -75 119 -195 130 -249 6 -31 5 -32 -47 -50 -82 -29 -300 -26 -439 5
-58 12 -108 25 -112 27 -8 5 96 111 261 267 131 125 113 125 207 0z m-1220 -4
c38 -26 42 -33 46 -81 8 -74 -20 -128 -79 -157 l-45 -22 -42 25 c-58 34 -64
44 -67 101 -3 71 28 128 84 153 46 21 43 21 103 -19z m359 -221 c52 -31 53
-33 58 -82 6 -72 -28 -130 -90 -157 -57 -24 -55 -25 -118 13 -51 30 -53 33
-59 85 -8 72 20 127 79 154 56 25 70 23 130 -13z m-485 -139 c52 -39 121 -87
153 -106 31 -20 57 -39 57 -43 0 -4 -33 -41 -74 -83 -81 -84 -100 -91 -151
-57 -16 11 -73 68 -127 127 l-96 107 66 63 c37 34 69 62 72 63 3 0 48 -32 100
-71z m855 -8 c47 -17 51 -20 63 -67 11 -42 10 -56 -4 -100 -14 -41 -26 -57
-63 -82 l-46 -32 -57 22 c-51 18 -59 25 -68 57 -22 80 2 153 63 193 49 32 47
32 112 9z m779 -37 c16 -62 -44 -187 -100 -210 -49 -20 -62 -17 -69 16 -13 61
47 182 103 207 42 19 59 16 66 -13z m-332 -40 c3 -2 9 -22 13 -43 9 -57 -11
-113 -60 -161 -41 -40 -44 -41 -101 -38 l-58 3 -13 43 c-11 39 -10 48 11 96
13 30 40 66 62 85 36 29 43 31 89 25 28 -3 53 -8 57 -10z"/>
<path d="M2371 3985 c-57 -35 -107 -67 -112 -72 -8 -8 17 -25 174 -113 l57
-32 0 141 c0 78 -3 141 -7 140 -5 0 -55 -29 -112 -64z"/>
<path d="M2550 3880 c0 -77 2 -140 6 -140 8 0 246 142 242 144 -12 10 -238
136 -242 136 -3 0 -6 -63 -6 -140z"/>
<path d="M2223 3828 c3 -13 29 -184 59 -381 31 -214 56 -351 60 -340 15 36
147 586 143 593 -6 9 -251 150 -261 150 -3 0 -4 -10 -1 -22z"/>
<path d="M2733 3772 c-62 -37 -113 -70 -113 -73 0 -5 203 -125 232 -137 4 -2
8 60 8 137 0 78 -3 141 -7 141 -5 -1 -59 -31 -120 -68z"/>
<path d="M2920 3670 c0 -77 2 -140 5 -140 7 0 209 122 223 135 11 10 -9 25
-102 79 -64 36 -119 66 -121 66 -3 0 -5 -63 -5 -140z"/>
<path d="M2477 3362 c-42 -164 -77 -305 -77 -312 0 -8 101 86 225 210 124 124
225 227 225 230 0 6 -283 170 -292 170 -2 0 -38 -134 -81 -298z"/>
<path d="M3092 3560 c-111 -67 -113 -69 -90 -84 37 -23 213 -124 214 -123 1 1
4 64 8 140 4 103 2 137 -7 136 -7 0 -63 -32 -125 -69z"/>
<path d="M2690 3230 c-207 -202 -221 -219 -179 -203 199 77 669 269 669 275 0
7 -245 148 -258 148 -4 0 -108 -99 -232 -220z"/>
</g>
</svg>
